<svg width="600" height="600" viewBox="0 0 600 600" fill="none" xmlns="http://www.w3.org/2000/svg">
<path d="M144.892 558.832C141.692 558.832 138.962 558.256 136.7 557.104C134.439 555.909 132.711 554.245 131.516 552.112C130.364 549.936 129.788 547.419 129.788 544.56V539.312H134.972V544.112C134.972 547.525 135.911 550.107 137.788 551.856C139.708 553.563 142.076 554.416 144.892 554.416C147.708 554.416 150.055 553.563 151.932 551.856C153.852 550.107 154.812 547.525 154.812 544.112V539.312H160.06V544.56C160.06 547.419 159.463 549.936 158.268 552.112C157.116 554.245 155.41 555.909 153.148 557.104C150.887 558.256 148.135 558.832 144.892 558.832ZM134.972 541.936H129.788V519.216C130.002 519.131 130.322 519.045 130.748 518.96C131.218 518.832 131.708 518.768 132.22 518.768C133.159 518.768 133.842 518.96 134.268 519.344C134.738 519.685 134.972 520.283 134.972 521.136V541.936ZM160.06 541.936H154.812V519.216C155.026 519.131 155.346 519.045 155.772 518.96C156.242 518.832 156.732 518.768 157.244 518.768C158.183 518.768 158.887 518.96 159.356 519.344C159.826 519.685 160.06 520.283 160.06 521.136V541.936ZM187.415 523.504L191.767 523.12C191.937 524.443 192.087 526 192.215 527.792C192.343 529.584 192.428 531.44 192.471 533.36C192.556 535.237 192.599 537.029 192.599 538.736V557.872C192.385 557.957 192.044 558.043 191.575 558.128C191.148 558.256 190.7 558.32 190.231 558.32C189.292 558.32 188.588 558.149 188.119 557.808C187.649 557.424 187.415 556.827 187.415 556.016V523.504ZM218.263 553.584L213.847 553.968C213.42 550.384 213.164 546.736 213.079 543.024C213.036 539.269 213.015 535.643 213.015 532.144V519.216C213.271 519.131 213.612 519.045 214.039 518.96C214.465 518.832 214.935 518.768 215.447 518.768C216.385 518.768 217.089 518.96 217.559 519.344C218.028 519.685 218.263 520.261 218.263 521.072V553.584ZM218.263 551.664V551.408V557.296C217.879 557.595 217.388 557.851 216.791 558.064C216.193 558.277 215.532 558.384 214.807 558.384C213.783 558.384 212.908 558.192 212.183 557.808C211.457 557.381 210.796 556.635 210.199 555.568L198.039 535.088C197.399 533.936 196.695 532.677 195.927 531.312C195.159 529.904 194.433 528.581 193.751 527.344C193.068 526.064 192.535 525.019 192.151 524.208L187.415 525.424V519.856C187.756 519.515 188.225 519.237 188.823 519.024C189.463 518.811 190.145 518.704 190.871 518.704C191.895 518.704 192.769 518.917 193.495 519.344C194.22 519.728 194.881 520.453 195.479 521.52L207.703 542C208.385 543.152 209.089 544.432 209.815 545.84C210.583 547.205 211.287 548.528 211.927 549.808C212.567 551.045 213.079 552.069 213.463 552.88L218.263 551.664ZM245.729 534.768H250.913V557.872C250.699 557.957 250.379 558.043 249.953 558.128C249.526 558.256 249.057 558.32 248.545 558.32C247.606 558.32 246.902 558.128 246.433 557.744C245.963 557.36 245.729 556.763 245.729 555.952V534.768ZM250.913 539.056H245.729V519.216C245.942 519.131 246.262 519.045 246.689 518.96C247.158 518.832 247.649 518.768 248.161 518.768C249.099 518.768 249.782 518.96 250.209 519.344C250.678 519.685 250.913 520.283 250.913 521.136V539.056ZM277.263 552.368L301.583 519.088H303.631C304.441 519.771 304.847 520.581 304.847 521.52C304.847 522.117 304.719 522.651 304.463 523.12C304.249 523.589 303.929 524.123 303.503 524.72L279.247 558H277.135C276.793 557.701 276.495 557.339 276.239 556.912C276.025 556.485 275.919 556.037 275.919 555.568C275.919 554.971 276.025 554.437 276.239 553.968C276.495 553.456 276.836 552.923 277.263 552.368ZM278.479 558L278.671 553.584H304.655C304.825 553.797 304.975 554.096 305.103 554.48C305.231 554.821 305.295 555.227 305.295 555.696C305.295 556.379 305.103 556.933 304.719 557.36C304.377 557.787 303.908 558 303.311 558H278.479ZM302.415 519.088L302.287 523.504H277.007C276.879 523.291 276.729 522.992 276.559 522.608C276.431 522.224 276.367 521.819 276.367 521.392C276.367 520.667 276.537 520.112 276.879 519.728C277.263 519.301 277.775 519.088 278.415 519.088H302.415ZM364.045 538.544C364.045 542.981 363.234 546.715 361.613 549.744C359.991 552.731 357.773 554.992 354.957 556.528C352.183 558.064 349.026 558.832 345.485 558.832C341.986 558.832 338.829 558.064 336.013 556.528C333.197 554.992 330.978 552.731 329.357 549.744C327.735 546.715 326.925 542.981 326.925 538.544C326.925 534.107 327.757 530.395 329.421 527.408C331.085 524.379 333.303 522.096 336.077 520.56C338.893 519.024 342.029 518.256 345.485 518.256C348.983 518.256 352.119 519.024 354.893 520.56C357.709 522.096 359.927 524.379 361.549 527.408C363.213 530.395 364.045 534.107 364.045 538.544ZM358.733 538.544C358.733 533.467 357.517 529.563 355.085 526.832C352.695 524.059 349.495 522.672 345.485 522.672C341.517 522.672 338.317 524.059 335.885 526.832C333.495 529.563 332.301 533.467 332.301 538.544C332.301 543.621 333.495 547.547 335.885 550.32C338.274 553.051 341.474 554.416 345.485 554.416C349.538 554.416 352.759 553.051 355.149 550.32C357.538 547.547 358.733 543.621 358.733 538.544ZM389.29 523.504L393.642 523.12C393.812 524.443 393.962 526 394.09 527.792C394.218 529.584 394.303 531.44 394.346 533.36C394.431 535.237 394.474 537.029 394.474 538.736V557.872C394.26 557.957 393.919 558.043 393.45 558.128C393.023 558.256 392.575 558.32 392.106 558.32C391.167 558.32 390.463 558.149 389.994 557.808C389.524 557.424 389.29 556.827 389.29 556.016V523.504ZM420.138 553.584L415.722 553.968C415.295 550.384 415.039 546.736 414.954 543.024C414.911 539.269 414.89 535.643 414.89 532.144V519.216C415.146 519.131 415.487 519.045 415.914 518.96C416.34 518.832 416.81 518.768 417.322 518.768C418.26 518.768 418.964 518.96 419.434 519.344C419.903 519.685 420.138 520.261 420.138 521.072V553.584ZM420.138 551.664V551.408V557.296C419.754 557.595 419.263 557.851 418.666 558.064C418.068 558.277 417.407 558.384 416.682 558.384C415.658 558.384 414.783 558.192 414.058 557.808C413.332 557.381 412.671 556.635 412.074 555.568L399.914 535.088C399.274 533.936 398.57 532.677 397.802 531.312C397.034 529.904 396.308 528.581 395.626 527.344C394.943 526.064 394.41 525.019 394.026 524.208L389.29 525.424V519.856C389.631 519.515 390.1 519.237 390.698 519.024C391.338 518.811 392.02 518.704 392.746 518.704C393.77 518.704 394.644 518.917 395.37 519.344C396.095 519.728 396.756 520.453 397.354 521.52L409.578 542C410.26 543.152 410.964 544.432 411.69 545.84C412.458 547.205 413.162 548.528 413.802 549.808C414.442 551.045 414.954 552.069 415.338 552.88L420.138 551.664ZM447.54 534.576H452.724V557.488C452.553 557.531 452.233 557.637 451.764 557.808C451.294 557.936 450.825 558 450.356 558C449.502 558 448.82 557.744 448.308 557.232C447.796 556.677 447.54 555.995 447.54 555.184V534.576ZM452.724 542.128L447.54 542.064V521.904C447.54 521.051 447.796 520.368 448.308 519.856C448.82 519.344 449.502 519.088 450.356 519.088C450.825 519.088 451.294 519.152 451.764 519.28C452.233 519.408 452.553 519.515 452.724 519.6V542.128ZM450.356 540.208V535.856H469.62C469.748 536.027 469.876 536.304 470.004 536.688C470.132 537.072 470.196 537.477 470.196 537.904C470.196 538.587 470.025 539.141 469.684 539.568C469.342 539.995 468.852 540.208 468.212 540.208H450.356ZM450.356 558V553.648H471.924C472.052 553.819 472.18 554.096 472.308 554.48C472.436 554.821 472.5 555.227 472.5 555.696C472.5 556.379 472.329 556.933 471.988 557.36C471.646 557.787 471.156 558 470.516 558H450.356ZM450.356 523.504V519.088H471.604C471.732 519.259 471.86 519.536 471.988 519.92C472.116 520.304 472.18 520.709 472.18 521.136C472.18 521.819 472.009 522.395 471.668 522.864C471.326 523.291 470.836 523.504 470.196 523.504H450.356Z" fill="#00ADB5"/>
<path d="M28.7998 273.244C17.0668 261.511 17.0667 242.489 28.7997 230.756L198.756 60.7998C210.489 49.0668 229.511 49.0667 241.244 60.7997L246.5 66.5C246.5 66.5 111.5 201.5 91.2307 222C78.8075 234 73.5 264 92.2307 283.5C128.5 319.5 246.75 437.75 246.75 437.75L241.244 443.2C229.511 454.933 210.489 454.933 198.756 443.2L28.7998 273.244Z" fill="#00ADB5"/>
<path d="M108.8 273.244C97.0668 261.511 97.0667 242.489 108.8 230.756L278.756 60.7998C290.489 49.0668 309.511 49.0667 321.244 60.7997L326.5 66.5C326.5 66.5 191.5 201.5 171.231 222C158.808 234 153.5 264 172.231 283.5C208.5 319.5 326.75 437.75 326.75 437.75L321.244 443.2C309.511 454.933 290.489 454.933 278.756 443.2L108.8 273.244Z" fill="#00ADB5"/>
<path d="M188.8 273.244C177.067 261.511 177.067 242.489 188.8 230.756L358.756 60.7998C370.489 49.0668 389.511 49.0667 401.244 60.7997L571.2 230.756C582.933 242.489 582.933 261.511 571.2 273.244L401.244 443.2C389.511 454.933 370.489 454.933 358.756 443.2L188.8 273.244Z" fill="#00ADB5"/>
</svg>
