<svg width="500" height="500" viewBox="0 0 500 500" fill="none" xmlns="http://www.w3.org/2000/svg">
<path d="M443.878 112.245C443.878 143.24 418.751 168.367 387.755 168.367C356.76 168.367 331.633 143.24 331.633 112.245C331.633 81.2493 356.76 56.1224 387.755 56.1224C418.751 56.1224 443.878 81.2493 443.878 112.245Z" fill="black"/>
<path d="M102.041 306.122C127.401 306.122 147.959 285.564 147.959 260.204C147.959 234.844 127.401 214.286 102.041 214.286C76.6808 214.286 56.1224 234.844 56.1224 260.204C56.1224 285.564 76.6808 306.122 102.041 306.122Z" fill="black"/>
<path d="M346.429 445.918C361.926 445.918 374.49 433.355 374.49 417.857C374.49 402.359 361.926 389.796 346.429 389.796C330.931 389.796 318.367 402.359 318.367 417.857C318.367 433.355 330.931 445.918 346.429 445.918Z" fill="black"/>
<path fill-rule="evenodd" clip-rule="evenodd" d="M500 112.245C500 174.236 449.746 224.49 387.755 224.49C350.822 224.49 318.056 206.652 297.6 179.122L200.929 234.936C202.987 243.016 204.082 251.482 204.082 260.204C204.082 274.713 201.054 288.514 195.595 301.011L292.893 357.186C307.29 344.459 326.212 336.735 346.939 336.735C392.023 336.735 428.571 373.283 428.571 418.367C428.571 463.452 392.023 500 346.939 500C301.854 500 265.306 463.452 265.306 418.367C265.306 408.8 266.952 399.617 269.976 391.086L171.979 334.507C153.715 351.706 129.108 362.245 102.041 362.245C45.6852 362.245 0 316.56 0 260.204C0 203.848 45.6852 158.163 102.041 158.163C135.044 158.163 164.387 173.831 183.039 198.134L279.602 142.383C276.936 132.792 275.51 122.685 275.51 112.245C275.51 50.2538 325.764 0 387.755 0C449.746 0 500 50.2538 500 112.245ZM387.755 183.673C427.204 183.673 459.184 151.694 459.184 112.245C459.184 72.796 427.204 40.8163 387.755 40.8163C348.306 40.8163 316.327 72.796 316.327 112.245C316.327 151.694 348.306 183.673 387.755 183.673ZM102.041 321.429C135.854 321.429 163.265 294.017 163.265 260.204C163.265 226.391 135.854 198.98 102.041 198.98C68.2275 198.98 40.8163 226.391 40.8163 260.204C40.8163 294.017 68.2275 321.429 102.041 321.429ZM346.939 459.184C369.481 459.184 387.755 440.91 387.755 418.367C387.755 395.825 369.481 377.551 346.939 377.551C324.397 377.551 306.122 395.825 306.122 418.367C306.122 440.91 324.397 459.184 346.939 459.184Z" fill="black"/>
</svg>
