<svg xmlns="http://www.w3.org/2000/svg" width="490" height="490" fill="none">
  <path stroke="#000" stroke-width="40" d="M470 110a90 90 0 1 1-180 0 90 90 0 0 1 180 0ZM180 255a80 80 0 1 1-160 0 80 80 0 0 1 160 0Zm220 155a60 60 0 1 1-120 0 60 60 0 0 1 120 0Z"/>
  <path fill="#000" d="M367 410a27 27 0 1 1-55 0 27 27 0 0 1 55 0ZM145 255a45 45 0 1 1-90 0 45 45 0 0 1 90 0ZM435 110a55 55 0 1 1-110 0 55 55 0 0 1 110 0Z"/>
  <path stroke="#000" stroke-width="40" d="m170 223 130-75M165 303l130 75"/>
</svg>
