<svg version="1.1" id="Layer_1" xmlns="http://www.w3.org/2000/svg" xmlns:xlink="http://www.w3.org/1999/xlink" x="0px" y="0px"
	 width="100%" viewBox="0 0 288 160" enable-background="new 0 0 288 160" xml:space="preserve">
<path fill="#ffffff" opacity="1.000000" stroke="none" 
	d="
M187.439270,15.307057 
	C202.800323,14.752324 215.412155,23.270876 219.336563,36.494606 
	C223.671738,51.102467 218.464859,65.175186 205.884247,72.852478 
	C193.767975,80.246399 178.110428,78.436691 167.733185,68.098099 
	C165.378143,65.751831 163.631119,65.529144 160.870209,67.049324 
	C154.451996,70.583229 147.921082,73.917801 141.372223,77.206490 
	C138.717834,78.539459 137.278519,79.900894 138.041733,83.368355 
	C138.855331,87.064766 138.785721,91.045532 137.403915,94.718567 
	C136.284760,97.693459 137.493881,99.267265 139.923233,100.789856 
	C146.132721,104.681633 152.310776,108.639519 158.309143,112.845161 
	C161.095490,114.798767 163.028320,115.073044 166.193497,113.069305 
	C176.328903,106.653023 189.814087,109.934265 196.064804,119.818039 
	C202.470901,129.947449 199.843552,143.271835 189.798584,149.827026 
	C182.167892,154.806702 174.005081,155.055634 166.206268,150.275146 
	C158.213440,145.375717 154.725922,137.812057 155.970245,128.574097 
	C156.424622,125.200859 155.770523,123.427055 152.947540,121.692612 
	C146.990417,118.032524 141.104904,114.220497 135.461533,110.099030 
	C132.321228,107.805611 130.191727,107.656479 126.795380,110.047440 
	C111.042175,121.137459 89.788742,114.280991 83.803596,96.491394 
	C79.834259,84.693367 84.077530,71.546120 94.123383,64.516884 
	C104.446678,57.293495 118.734810,57.586910 128.412079,66.121613 
	C132.283417,69.535873 134.923721,69.177322 138.812027,66.884575 
	C144.399460,63.589928 150.255142,60.734695 156.086868,57.876663 
	C158.873276,56.511097 159.905197,54.895641 159.328903,51.601082 
	C156.141266,33.377411 168.371140,17.515190 187.439270,15.307057 
M204.427826,60.933517 
	C211.168686,53.279442 212.544846,45.142643 208.457596,37.107014 
	C204.622803,29.567709 196.453659,24.771559 188.565079,25.428030 
	C179.813797,26.156294 172.441620,32.101349 169.941101,40.446735 
	C167.350357,49.093220 170.758041,58.198505 178.583084,63.538074 
	C186.196060,68.732933 195.379639,67.967270 204.427826,60.933517 
M103.041260,71.382118 
	C102.036331,71.967987 100.973701,72.474022 100.035469,73.152168 
	C91.468971,79.343956 90.103653,90.998940 96.979477,99.010925 
	C103.526657,106.639931 115.479301,107.016617 122.744431,99.822876 
	C128.489517,94.134239 129.705093,85.517685 125.720291,78.728554 
	C121.170929,70.977585 113.208397,68.218521 103.041260,71.382118 
M181.806122,142.414948 
	C182.537506,142.018951 183.325836,141.700851 183.991272,141.214600 
	C189.248657,137.372955 190.729034,131.026566 187.623688,125.792824 
	C184.594513,120.687500 178.231537,118.706284 172.821823,121.184029 
	C167.274216,123.724930 164.659302,130.153473 166.835388,135.901184 
	C168.911880,141.385849 174.992020,144.263474 181.806122,142.414948 
z"/>
</svg>