<svg width="1210" height="400" viewBox="0 0 1210 400" fill="none" xmlns="http://www.w3.org/2000/svg">
<path d="M355.102 89.7959C355.102 114.592 335.001 134.694 310.204 134.694C285.408 134.694 265.306 114.592 265.306 89.7959C265.306 64.9995 285.408 44.898 310.204 44.898C335.001 44.898 355.102 64.9995 355.102 89.7959Z" fill="#00ADB5"/>
<path d="M81.6327 244.898C101.921 244.898 118.367 228.451 118.367 208.163C118.367 187.875 101.921 171.429 81.6327 171.429C61.3446 171.429 44.898 187.875 44.898 208.163C44.898 228.451 61.3446 244.898 81.6327 244.898Z" fill="#00ADB5"/>
<path d="M277.143 356.735C289.541 356.735 299.592 346.684 299.592 334.286C299.592 321.887 289.541 311.837 277.143 311.837C264.745 311.837 254.694 321.887 254.694 334.286C254.694 346.684 264.745 356.735 277.143 356.735Z" fill="#00ADB5"/>
<path fill-rule="evenodd" clip-rule="evenodd" d="M400 89.7959C400 139.389 359.797 179.592 310.204 179.592C280.658 179.592 254.445 165.322 238.08 143.298L160.743 187.948C162.39 194.413 163.265 201.186 163.265 208.163C163.265 219.77 160.843 230.812 156.476 240.809L234.315 285.749C245.832 275.567 260.97 269.388 277.551 269.388C313.619 269.388 342.857 298.626 342.857 334.694C342.857 370.761 313.619 400 277.551 400C241.483 400 212.245 370.761 212.245 334.694C212.245 327.04 213.562 319.693 215.981 312.869L137.584 267.606C122.972 281.365 103.287 289.796 81.6327 289.796C36.5482 289.796 0 253.248 0 208.163C0 163.079 36.5482 126.531 81.6327 126.531C108.035 126.531 131.51 139.065 146.431 158.507L223.682 113.906C221.548 106.234 220.408 98.1481 220.408 89.7959C220.408 40.203 260.611 0 310.204 0C359.797 0 400 40.203 400 89.7959ZM310.204 146.939C341.763 146.939 367.347 121.355 367.347 89.7959C367.347 58.2368 341.763 32.6531 310.204 32.6531C278.645 32.6531 253.061 58.2368 253.061 89.7959C253.061 121.355 278.645 146.939 310.204 146.939ZM81.6327 257.143C108.683 257.143 130.612 235.214 130.612 208.163C130.612 181.113 108.683 159.184 81.6327 159.184C54.582 159.184 32.6531 181.113 32.6531 208.163C32.6531 235.214 54.582 257.143 81.6327 257.143ZM277.551 367.347C295.585 367.347 310.204 352.728 310.204 334.694C310.204 316.66 295.585 302.041 277.551 302.041C259.517 302.041 244.898 316.66 244.898 334.694C244.898 352.728 259.517 367.347 277.551 367.347Z" fill="#00ADB5"/>
<path d="M558.528 290L493.504 210.384V290H457.664V111.312H493.504V191.44L558.528 111.312H601.792L528.064 199.888L603.84 290H558.528ZM618.198 218.576C618.198 204.24 621.014 191.525 626.646 180.432C632.449 169.339 640.214 160.805 649.942 154.832C659.841 148.859 670.849 145.872 682.966 145.872C693.547 145.872 702.763 148.005 710.614 152.272C718.635 156.539 725.035 161.915 729.814 168.4V148.176H765.91V290H729.814V269.264C725.206 275.92 718.806 281.467 710.614 285.904C702.593 290.171 693.291 292.304 682.71 292.304C670.763 292.304 659.841 289.232 649.942 283.088C640.214 276.944 632.449 268.325 626.646 257.232C621.014 245.968 618.198 233.083 618.198 218.576ZM729.814 219.088C729.814 210.384 728.107 202.96 724.694 196.816C721.281 190.501 716.673 185.723 710.87 182.48C705.067 179.067 698.838 177.36 692.182 177.36C685.526 177.36 679.382 178.981 673.75 182.224C668.118 185.467 663.51 190.245 659.926 196.56C656.513 202.704 654.806 210.043 654.806 218.576C654.806 227.109 656.513 234.619 659.926 241.104C663.51 247.419 668.118 252.283 673.75 255.696C679.553 259.109 685.697 260.816 692.182 260.816C698.838 260.816 705.067 259.195 710.87 255.952C716.673 252.539 721.281 247.76 724.694 241.616C728.107 235.301 729.814 227.792 729.814 219.088ZM842.642 177.616V246.224C842.642 251.003 843.751 254.501 845.97 256.72C848.359 258.768 852.285 259.792 857.746 259.792H874.386V290H851.858C821.65 290 806.546 275.323 806.546 245.968V177.616H789.65V148.176H806.546V113.104H842.642V148.176H874.386V177.616H842.642ZM980.036 146.128C990.788 146.128 1000.35 148.517 1008.71 153.296C1017.07 157.904 1023.56 164.816 1028.16 174.032C1032.94 183.077 1035.33 194 1035.33 206.8V290H999.492V211.664C999.492 200.4 996.676 191.781 991.044 185.808C985.412 179.664 977.732 176.592 968.004 176.592C958.105 176.592 950.255 179.664 944.452 185.808C938.82 191.781 936.004 200.4 936.004 211.664V290H900.164V100.56H936.004V165.84C940.612 159.696 946.756 154.917 954.436 151.504C962.116 147.92 970.649 146.128 980.036 146.128ZM1060.2 218.576C1060.2 204.24 1063.01 191.525 1068.65 180.432C1074.45 169.339 1082.21 160.805 1091.94 154.832C1101.84 148.859 1112.85 145.872 1124.97 145.872C1135.55 145.872 1144.76 148.005 1152.61 152.272C1160.64 156.539 1167.04 161.915 1171.81 168.4V148.176H1207.91V290H1171.81V269.264C1167.21 275.92 1160.81 281.467 1152.61 285.904C1144.59 290.171 1135.29 292.304 1124.71 292.304C1112.76 292.304 1101.84 289.232 1091.94 283.088C1082.21 276.944 1074.45 268.325 1068.65 257.232C1063.01 245.968 1060.2 233.083 1060.2 218.576ZM1171.81 219.088C1171.81 210.384 1170.11 202.96 1166.69 196.816C1163.28 190.501 1158.67 185.723 1152.87 182.48C1147.07 179.067 1140.84 177.36 1134.18 177.36C1127.53 177.36 1121.38 178.981 1115.75 182.224C1110.12 185.467 1105.51 190.245 1101.93 196.56C1098.51 202.704 1096.81 210.043 1096.81 218.576C1096.81 227.109 1098.51 234.619 1101.93 241.104C1105.51 247.419 1110.12 252.283 1115.75 255.696C1121.55 259.109 1127.7 260.816 1134.18 260.816C1140.84 260.816 1147.07 259.195 1152.87 255.952C1158.67 252.539 1163.28 247.76 1166.69 241.616C1170.11 235.301 1171.81 227.792 1171.81 219.088Z" fill="#00ADB5"/>
</svg>
